<svg width="22" height="24" viewBox="0 0 22 24" fill="none" xmlns="http://www.w3.org/2000/svg">
<path d="M3.99 23.9998C3.48282 23.9998 2.94747 23.9019 2.46848 23.7305C1.9613 23.5345 1.51048 23.2651 1.11601 22.9223C0.721546 22.5794 0.439783 22.1631 0.242549 21.7223C0.0453146 21.257 -0.0392144 20.7917 0.0171382 20.3019L1.31325 6.95498C1.3696 6.39172 1.65136 5.87743 2.13036 5.4856C2.60936 5.09376 3.20106 4.87335 3.87729 4.89784H18.1345C18.7826 4.89784 19.4024 5.11825 19.8814 5.4856C20.3604 5.85294 20.6422 6.39172 20.6985 6.95498L21.9947 20.2774C22.0228 20.7917 21.9383 21.257 21.7692 21.6978C21.572 22.1631 21.2903 22.5549 20.8958 22.8978C20.5013 23.2407 20.0505 23.51 19.5433 23.706C19.0361 23.9019 18.4163 23.9754 17.9373 23.9754H4.04635C4.04635 23.9998 4.01817 23.9998 3.99 23.9998ZM3.87729 6.93049C3.82094 6.93049 3.76459 6.95498 3.70824 6.97947C3.68006 7.00396 3.65188 7.05294 3.65188 7.10192L2.35577 20.4488C2.35577 20.6203 2.38395 20.8162 2.46848 21.0121C2.55301 21.208 2.66571 21.3549 2.83477 21.5019C3.00383 21.6488 3.17289 21.7468 3.3983 21.8447C3.62371 21.9182 3.82094 21.9672 4.04635 21.9672H17.9654H17.9936C18.219 21.9672 18.4444 21.9182 18.6417 21.8447C18.8389 21.7713 19.0361 21.6488 19.2052 21.5019C19.3743 21.3549 19.487 21.1835 19.5715 21.0121C19.656 20.8407 19.6842 20.6203 19.656 20.4243L18.3599 7.10192C18.3599 7.05294 18.3317 7.00396 18.2754 6.97947L3.87729 6.93049Z" fill="#404142"/>
<path d="M15.2322 10.5796C14.5842 10.5796 14.0488 10.1143 14.0488 9.551V3.47754C14.0488 3.28163 14.0207 3.1102 13.9361 2.93877C13.8516 2.76734 13.7389 2.6204 13.598 2.47346C13.4571 2.32653 13.2599 2.22857 13.0627 2.17959C12.8654 2.10612 12.6682 2.08163 12.4428 2.08163H9.59698C9.17434 2.08163 8.7517 2.22857 8.44176 2.49795C8.13182 2.76734 7.96276 3.1102 7.96276 3.50203V9.551C7.96276 10.1143 7.42741 10.5796 6.77935 10.5796C6.1313 10.5796 5.59595 10.1143 5.59595 9.551V3.47754C5.59595 2.54693 6.01859 1.68979 6.75118 1.02857C7.54011 0.367346 8.52628 0 9.59698 0H12.4146C12.95 0 13.4571 0.097959 13.9361 0.269387C14.4151 0.440815 14.866 0.710203 15.2322 1.02857C15.5985 1.34694 15.8803 1.73877 16.1057 2.1551C16.3029 2.59591 16.4157 3.03673 16.4157 3.47754V9.551C16.4157 10.1388 15.8803 10.5796 15.2322 10.5796Z" fill="#404142"/>
</svg>
