<svg width="20" height="24" viewBox="0 0 20 24" fill="none" xmlns="http://www.w3.org/2000/svg">
<path d="M9.99892 10.2857C6.93013 10.2857 4.44336 7.98364 4.44336 5.14284C4.44336 2.30203 6.93013 0 9.99892 0C13.0677 0 15.5545 2.30203 15.5545 5.14284C15.5545 7.98364 13.0677 10.2857 9.99892 10.2857ZM9.99892 2.05713C8.17352 2.05713 6.66558 3.45305 6.66558 5.14284C6.66558 6.83263 8.17352 8.22854 9.99892 8.22854C11.8243 8.22854 13.3322 6.83263 13.3322 5.14284C13.3322 3.45305 11.8243 2.05713 9.99892 2.05713Z" fill="#404142"/>
<path d="M15.9259 23.9999H4.07407C2.98942 23.9999 1.95767 23.608 1.19048 22.8978C0.423281 22.1876 0 21.2325 0 20.2285V18.857C0 17.1183 0.740741 15.4775 2.06349 14.253C3.38624 13.0285 5.15873 12.3428 7.03704 12.3428H12.963C14.8413 12.3428 16.6138 13.0285 17.9365 14.253C19.2593 15.4775 20 17.1183 20 18.857V20.2285C20 21.2325 19.5767 22.1876 18.8095 22.8978C18.0423 23.608 17.0106 23.9999 15.9259 23.9999ZM7.03704 14.3999C5.74074 14.3999 4.55026 14.8652 3.62434 15.6979C2.72487 16.5305 2.22222 17.657 2.22222 18.857V20.2285C2.22222 20.6693 2.40741 21.1101 2.77778 21.4285C3.12169 21.7468 3.59788 21.9427 4.07407 21.9427H15.9259C16.4021 21.9427 16.8783 21.7713 17.2222 21.4285C17.5661 21.1101 17.7778 20.6693 17.7778 20.2285V18.857C17.7778 17.657 17.2751 16.555 16.3757 15.6979C15.4762 14.8652 14.2328 14.3999 12.963 14.3999H7.03704Z" fill="#404142"/>
</svg>
